<?xml version="1.0" standalone="no"?>
<!DOCTYPE svg PUBLIC "-//W3C//DTD SVG 20010904//EN"
 "http://www.w3.org/TR/2001/REC-SVG-20010904/DTD/svg10.dtd">
<svg version="1.0" xmlns="http://www.w3.org/2000/svg"
 width="512.000000pt" height="512.000000pt" viewBox="0 0 512.000000 512.000000"
 preserveAspectRatio="xMidYMid meet">
<metadata>
Created by potrace 1.14, written by Peter Selinger 2001-2017
</metadata>
<g transform="translate(0.000000,512.000000) scale(0.100000,-0.100000)"
fill="#000000" stroke="none">
<path d="M2379 5116 c-2 -2 -35 -6 -74 -9 -167 -15 -410 -68 -590 -130 -342
-118 -692 -337 -953 -596 -113 -112 -145 -150 -290 -336 -4 -5 -35 -53 -68
-105 -159 -246 -266 -499 -334 -785 -33 -140 -41 -187 -57 -335 -10 -85 -10
-414 -1 -510 21 -221 81 -465 170 -690 28 -72 125 -274 151 -315 6 -10 30 -49
52 -85 226 -372 586 -708 985 -917 251 -131 541 -226 820 -268 183 -27 602
-27 735 0 11 3 38 7 60 10 22 3 47 7 55 10 8 2 26 6 40 9 311 56 682 219 970
425 381 272 687 653 868 1081 62 147 131 368 148 475 3 22 8 43 9 46 2 3 7 28
10 55 4 27 8 56 10 64 12 44 20 187 20 355 0 216 -8 316 -40 480 -45 229 -115
438 -220 650 -58 117 -194 339 -249 406 -11 14 -32 40 -46 59 -71 94 -231 257
-350 356 -257 214 -512 359 -816 464 -112 39 -302 89 -354 95 -14 1 -34 5 -45
8 -11 3 -42 8 -70 12 -27 3 -66 8 -85 11 -39 6 -455 15 -461 10z"/>
</g>
</svg>
