<svg width="141" height="40" viewBox="0 0 141 40" fill="none" xmlns="http://www.w3.org/2000/svg">
<g id="Group 2422">
<path id="Vector" d="M18.2393 13.7387L10.4258 0.148438L8.29414 3.83891L16.1248 17.401L8.25977 30.9654H12.5228L20.3537 17.401L36.0322 17.431L33.9009 13.7387H18.2393Z" fill="white"/>
<path id="Vector_2" d="M10.5023 13.6748H2.61384L0.5 17.3356H12.6099L10.5023 13.6748Z" fill="white"/>
<path id="Vector_3" d="M19.9326 24.128L23.8803 30.9658H28.1077L22.0527 20.4785L19.9326 24.128Z" fill="white"/>
<path id="Vector_4" d="M28.2212 3.9023L26.1077 0.241211L20.0527 10.7285H24.2798L28.2212 3.9023Z" fill="white"/>
<path id="Vector_5" d="M51.503 9.54785L38.0596 38.5228H47.3275L60.3733 9.54785H51.503Z" fill="white"/>
<path id="Vector_6" d="M59.3877 24.749L66.2033 38.523H75.4606L63.7957 14.9805L59.3877 24.749Z" fill="white"/>
<path id="Vector_7" d="M137.86 20.7646H126.645V26.8908H137.86V20.7646Z" fill="white"/>
<path id="Vector_8" d="M122.028 31.761V15.8812H139.962V9.54785H113.915V38.5231H140.5V31.761H122.028Z" fill="white"/>
<path id="Vector_9" d="M95.7247 32.885C90.6181 32.885 86.4783 28.9226 86.4783 24.0348C86.4783 19.1469 90.6181 15.1845 95.7247 15.1845C98.1503 15.1749 100.486 16.1032 102.243 17.7752L102.243 17.7731L102.306 17.7355L106.734 11.9004C103.892 9.51436 100.125 8.21875 95.6681 8.21875C86.0222 8.21875 78.9395 14.7801 78.9395 24.035C78.9395 33.2904 86.0223 39.8513 95.6681 39.8513C100.071 39.8513 103.8 38.5862 106.631 36.2555L102.29 30.2497C100.528 31.9495 98.1729 32.8949 95.7247 32.885Z" fill="white"/>
</g>
</svg>
