<svg width="141" height="24" viewBox="0 0 141 24" fill="none" xmlns="http://www.w3.org/2000/svg">
<g id="Group 2421">
<path id="logo-a1" d="M1.09574 11.3027C1.5922 8.71402 3.87589 6.92188 7.05319 6.92188C10.727 6.92188 13.6064 8.51489 13.6064 13.4931V22.7525H10.4291L10.0319 20.7612C8.93972 22.1551 7.45036 23.0511 5.26596 23.0511C2.58511 23.0511 0.5 21.3586 0.5 18.2721C0.5 15.1856 3.28014 13.1944 7.15248 13.1944H9.73404V12.4974C9.73404 10.7053 8.44326 10.2075 6.9539 10.2075C5.8617 10.2075 4.7695 10.6057 4.27305 11.9996L1.09574 11.3027ZM6.15957 19.7656C7.94681 19.7656 9.73404 18.5708 9.73404 16.5795V16.2808H7.25177C5.56383 16.1813 4.57092 16.8782 4.57092 18.2721C4.57092 18.969 5.16667 19.7656 6.15957 19.7656Z" fill="white"/>
<path id="logo-a2" d="M75.961 11.3027C76.4574 8.71402 78.7411 6.92188 81.9184 6.92188C85.5922 6.92188 88.4716 8.51489 88.4716 13.4931V22.7525H85.2943L84.8971 20.7612C83.8049 22.1551 82.3156 23.0511 80.1312 23.0511C77.4503 23.0511 75.3652 21.3586 75.3652 18.2721C75.3652 15.1856 78.1454 13.1944 82.0177 13.1944H84.5993V12.4974C84.5993 10.7053 83.3085 10.2075 81.8191 10.2075C80.7269 10.2075 79.6347 10.6057 79.1383 11.9996L75.961 11.3027ZM81.0248 19.7656C82.812 19.7656 84.5993 18.5708 84.5993 16.5795V16.2808H82.0177C80.3298 16.2808 79.3369 16.8782 79.3369 18.2721C79.4362 18.969 80.0319 19.7656 81.0248 19.7656Z" fill="white"/>
<path id="logo-r" d="M91.9473 22.852V7.121H95.8196V9.70965C96.9118 7.81795 98.699 6.92188 100.387 6.92188C101.082 6.92188 101.678 7.02144 102.274 7.22057L101.578 10.8048C101.082 10.5062 100.586 10.307 99.9898 10.307C97.7061 10.307 95.8196 12.1987 95.8196 17.1769V22.7525L91.9473 22.852Z" fill="white"/>
<path id="logo-d" d="M110.514 6.922C112.103 6.922 113.593 7.71851 114.288 8.61458V0.848633H118.16V22.8521H114.288V21.2591C113.791 22.0556 112.401 23.1508 110.514 23.1508C105.848 23.1508 103.465 19.8652 103.465 15.0862C103.465 10.3072 105.848 6.922 110.514 6.922ZM111.11 19.7657C113.096 19.7657 114.685 18.0731 114.685 14.9866C114.685 11.9002 113.096 10.2076 111.11 10.2076C109.124 10.2076 107.536 11.9002 107.536 14.9866C107.536 18.0731 109.124 19.7657 111.11 19.7657Z" fill="white"/>
<path id="logo-s" d="M132.061 9.41087L129.777 11.5017C129.082 10.5061 127.99 10.1078 127.195 10.1078C126.401 10.1078 125.706 10.6056 125.706 11.4021C125.706 12.0991 126.302 12.5969 127.195 12.8956C129.38 13.6921 132.855 14.389 132.855 17.6746C132.855 20.562 130.671 22.8519 127.295 22.8519C124.018 22.8519 121.834 20.562 121.139 18.6703L124.217 16.9777C124.812 18.4711 125.805 19.5663 127.394 19.5663C128.585 19.5663 129.38 18.969 129.38 17.8738C129.38 16.5794 127.394 16.2807 125.507 15.4842C123.82 14.7873 122.33 13.6921 122.33 11.3026C122.33 8.91305 124.316 6.72266 127.295 6.72266C129.281 6.82222 131.167 7.91742 132.061 9.41087Z" fill="white"/>
<path id="logo-w2" d="M52.032 7.12109L49.2518 17.9735L46.571 7.12109H42.9965L40.415 17.9735L38.2306 11.701L37.9327 12.398L36.7412 16.4801L38.727 22.8521H42.1029L44.7838 12.6966L47.4646 22.8521H50.9398L55.9043 7.12109H52.032Z" fill="white"/>
<path id="logo-w3" d="M70.5991 7.12109L67.8189 17.9735L65.1381 7.12109H61.5636L58.982 17.9735L56.7976 11.701L56.4998 12.398L55.209 16.4801L57.2941 22.8521H60.67L63.3508 12.6966L66.0317 22.8521H69.4076L74.4714 7.12109H70.5991Z" fill="white"/>
<path id="logo-w1" d="M37.3365 7.12109L32.372 22.7526H28.9961L26.3152 12.6966L23.6344 22.8521H20.2585L15.2939 7.22066H19.1663L21.9464 17.9735L24.6273 7.22066H28.2017L30.8826 17.9735L33.6627 7.22066L37.3365 7.12109Z" fill="white"/>
<path id="logo-p" d="M137.918 17.7744C139.408 17.7744 140.5 18.8696 140.5 20.3631C140.5 21.8565 139.408 22.9517 137.918 22.9517C136.429 22.9517 135.337 21.8565 135.337 20.3631C135.337 18.8696 136.429 17.7744 137.918 17.7744Z" fill="white"/>
</g>
</svg>
