<svg width="71" height="58" viewBox="0 0 71 58" fill="none" xmlns="http://www.w3.org/2000/svg">
<path id="Vector" d="M65.7804 38.3321V48.9438C65.7804 50.6385 64.9974 51.8621 63.6711 51.8621C63.1067 51.8621 62.6411 51.6441 62.2954 51.2644C61.8298 50.751 61.5759 49.9353 61.5759 48.9508C61.5759 48.9508 61.6958 17.0948 61.6676 16.3001C61.6464 15.6039 62.0415 10.822 59.4454 6.72221C57.3783 3.44519 53.3995 0.6112 45.7735 0.646362C38.0204 0.688555 32.4543 4.36642 30.9375 10.6462C30.874 10.9134 30.8176 11.1877 30.7612 11.469C30.7612 11.469 30.74 9.1624 29.1033 6.54641C28.3344 5.31577 27.2056 4.02184 25.5548 2.87558C25.5548 2.87558 22.2039 0.618234 17.5407 0.639331C17.5407 0.639331 8.50374 -0.0146675 4.1863 8.18492C0.193369 15.7727 -0.632026 30.5685 2.08401 44.3869C2.64133 47.2209 3.62193 49.4571 4.84944 51.2081C8.47553 56.3768 14.2603 57.3754 17.7171 57.3613C17.7171 57.3613 27.0716 57.7692 29.4984 47.8327C29.4984 47.8327 29.4843 48.3601 29.6465 49.1688C29.8299 50.1041 30.2391 51.4191 31.1703 52.699C31.1703 52.706 31.1774 52.706 31.1774 52.713C31.77 53.5358 32.5813 54.3515 33.6747 55.0477C33.6747 55.0477 36.4331 57.1222 40.9128 57.3543C40.9128 57.3543 47.7135 58.0786 51.7487 50.3924C51.7487 50.3924 51.7911 50.7229 51.9463 51.2433C52.1438 51.9184 52.5248 52.917 53.2443 53.9085C53.2443 53.9155 53.2514 53.9155 53.2514 53.9226C54.5635 55.7299 56.9903 57.516 61.4207 57.298C67.8263 56.9886 70.4153 52.5091 70.4859 48.9508L70.5 38.8736V38.3321H65.7804ZM10.5566 37.4179L10.4861 28.2549C10.6484 18.4309 10.994 16.3071 10.994 16.3071C11.897 5.54783 19.3467 5.54783 19.3467 5.54783C23.0222 5.48454 25.0116 7.01054 26.0839 8.78969C27.2338 10.6954 27.3255 12.8895 27.3185 13.6982C27.3185 13.9092 27.3044 14.0217 27.3044 14.0217C27.1633 13.5786 26.994 13.1919 26.7964 12.8614L26.7894 12.8543C25.0257 9.7953 21.4843 10.8572 21.4843 10.8572C17.0328 11.9823 18.2885 17.7347 18.2885 17.7347C18.5637 18.7614 18.9587 19.5631 19.4243 20.1819C21.7453 23.262 25.83 21.8837 25.83 21.8837C29.5478 20.5827 30.7541 13.7123 30.7541 13.7123C30.7964 14.1975 30.8599 14.6546 30.9305 15.0906C31.2479 16.8908 31.8405 18.227 32.5742 19.2185C34.9939 22.5166 38.8811 21.9892 38.8811 21.9892C43.6429 21.4266 43.784 15.9696 43.784 15.9696C43.8264 14.4858 43.5301 13.3958 43.0786 12.6012C41.9075 10.5407 39.7135 10.4352 39.7135 10.4352C36.6165 10.3227 35.2691 12.3128 34.8176 13.2059C34.6906 13.4591 34.6342 13.6208 34.6342 13.6208C33.6042 10.1821 37.0327 7.56608 37.0327 7.56608C39.0715 5.70254 43.0292 5.63925 43.0292 5.63925C47.2126 5.72364 49.3854 7.74892 50.493 9.54917C51.396 11.0189 51.5935 12.348 51.5935 12.348C52.3695 17.3761 50.0627 20.2874 50.0627 20.2874C47.9251 23.684 43.9957 25.6178 43.9957 25.6178C42.7964 26.3211 37.7735 29.4574 37.7735 29.4574C33.9005 31.6023 31.8829 34.5628 31.128 35.8849C30.8811 36.3139 30.7682 36.567 30.7682 36.567L30.7541 33.508V32.9665H25.6465L25.6324 35.7513C25.6889 44.7596 24.0451 51.8551 18.6907 51.9254C16.7365 51.9535 14.7683 51.4683 13.2586 49.3938C11.77 47.3193 10.7118 43.6836 10.5566 37.4179ZM39.5089 49.6399C38.6483 48.4867 37.456 46.0254 38.4296 42.017C38.4296 42.017 38.9022 38.8384 41.2514 35.7443C41.2514 35.7443 42.1756 34.3519 46.7823 30.1677C46.7823 30.1677 49.8581 27.179 51.5159 25.5053C51.5159 25.5053 51.523 25.8007 51.53 26.3984C51.5512 28.058 51.5935 32.0453 51.5724 38.3884C51.5724 38.3884 51.3607 46.4684 47.9463 49.7736C47.9463 49.7736 44.1932 53.6202 40.2356 50.4416C40.2285 50.4346 39.911 50.1814 39.5089 49.6399Z" fill="white"/>
</svg>
