<svg width="141" height="42" viewBox="0 0 141 42" fill="none" xmlns="http://www.w3.org/2000/svg">
<path id="Vector" d="M119.838 6.42026C120.365 6.42026 120.858 6.55294 121.289 6.78926C122.239 7.30337 122.881 8.30672 122.881 9.46347V18.0997H131.244C132.923 18.0997 134.283 19.4596 134.283 21.1388C134.283 22.8179 132.923 24.1778 131.244 24.1778H122.881V32.3746C122.881 34.0537 121.521 35.4137 119.842 35.4137C119.49 35.4137 96.5537 35.4054 96.5537 35.4054C94.8746 35.4054 93.5146 34.0455 93.5146 32.3663V21.002H93.5229C93.5976 19.3891 94.9243 18.0997 96.5579 18.0997H116.803V12.5025H93.4317L82.341 33.0836C82.1627 33.9957 81.5781 34.8125 80.6785 35.2478C80.2556 35.451 79.8078 35.5505 79.3642 35.5505C78.3111 35.5505 77.2953 34.9991 76.7397 34.0413C76.6278 33.8713 76.5324 33.6889 76.4578 33.5023L67.6971 16.3086L58.837 33.1167C58.4556 34.0164 57.8917 34.8166 56.992 35.2478C56.5691 35.451 56.1213 35.5505 55.6777 35.5505C54.6246 35.5505 53.6088 34.9991 53.0491 34.0413C52.9372 33.8713 52.8418 33.6889 52.7672 33.4982L42.0703 12.5025H24.205V18.0997H38.6457C40.3249 18.0997 41.6848 19.4596 41.6848 21.1388C41.6848 22.8179 40.3249 24.1778 38.6457 24.1778H24.205V32.5404C24.205 34.2196 22.8451 35.5795 21.1659 35.5795C19.4868 35.5795 18.1269 34.2196 18.1269 32.5404V24.1778H9.76425C8.0851 24.1778 6.72519 22.8179 6.72519 21.1388C6.72519 19.4596 8.0851 18.0997 9.76425 18.0997H18.1269V9.46347C18.1269 8.31086 18.7695 7.30337 19.7189 6.78926C20.1501 6.55708 20.6435 6.42026 21.1701 6.42026H43.8366C44.3299 6.42026 44.7943 6.5405 45.2048 6.7478C45.8391 7.02973 46.3822 7.5314 46.7098 8.20721L55.6736 25.8031L64.6664 8.99911C65.1183 8.07868 65.3671 7.25362 66.3414 6.78511C66.7643 6.58196 67.2121 6.48245 67.6557 6.48245C68.4061 6.48245 69.14 6.76438 69.6997 7.2702C70.2553 7.70139 70.5082 7.99576 70.8896 8.73376L79.3642 25.8031L88.8752 8.15746C89.124 7.72212 89.464 7.37385 89.8537 7.1168C90.3802 6.68146 91.056 6.41611 91.794 6.41611H119.85M99.456 29.3272H116.799V24.182H99.456V29.3272ZM119.838 0.201172H91.7816C89.7459 0.201172 87.7558 0.87698 86.143 2.11665C85.0443 2.89611 84.1197 3.91604 83.4563 5.08523L83.419 5.14742L83.3858 5.20961L79.5051 12.4072C79.5051 12.4072 75.0025 3.5885 73.6923 2.51467C72.009 1.06355 69.8697 0.263363 67.6391 0.263363C66.2626 0.263363 64.8737 0.578463 63.6299 1.17964C61.2168 2.34054 59.8818 4.46747 58.7416 6.97169L55.8104 12.4072L52.2572 5.42935C51.3244 3.53875 49.7696 2.01715 47.8541 1.12989C46.5978 0.520418 45.2089 0.201172 43.82 0.201172H21.1535C19.6153 0.201172 18.0854 0.586755 16.7338 1.32061C13.7486 2.94172 11.8912 6.05955 11.8912 9.45932V11.8765H9.74767C4.6563 11.8806 0.501953 16.0308 0.501953 21.1388C0.501953 26.2467 4.6563 30.3969 9.7601 30.3969H11.9036V32.5404C11.9036 37.6442 16.058 41.7986 21.1618 41.7986C26.2656 41.7986 30.4199 37.6442 30.4199 32.5404V30.3969H38.6416C40.4202 30.3969 42.0869 29.8911 43.4966 29.0204L47.1202 36.1351C47.3027 36.5414 47.5141 36.9353 47.7546 37.3167C49.4255 40.0655 52.4438 41.7654 55.6653 41.7654C57.0418 41.7654 58.4307 41.4503 59.6745 40.8491C61.9341 39.7629 63.8952 37.9303 64.8986 35.5795L67.5313 29.6962L70.8108 36.1351C70.9933 36.5414 71.2006 36.9311 71.441 37.3084C73.1119 40.0572 76.1302 41.7613 79.3559 41.7613C80.7324 41.7613 82.1213 41.4462 83.3651 40.845C85.4837 39.8292 87.1297 38.0257 87.9755 35.8614C89.3603 39.2363 92.6813 41.6203 96.5496 41.6203L119.838 41.6286C124.942 41.6286 129.096 37.6442 129.096 32.5363V30.3928H131.24C136.343 30.3928 140.498 26.2384 140.498 21.1346C140.498 16.0308 136.343 11.8765 131.24 11.8765H129.096V9.45932C129.096 6.0637 127.243 2.94172 124.254 1.32061C122.902 0.586755 121.376 0.201172 119.834 0.201172L119.838 0.201172Z" fill="white"/>
</svg>
