<svg width="50" height="50" viewBox="0 0 50 50" fill="none" xmlns="http://www.w3.org/2000/svg">
<path fill-rule="evenodd" clip-rule="evenodd" d="M44.0084 11.8474C43.8549 11.6942 43.6502 11.5409 43.4967 11.4388L31.472 4.79866C31.0626 4.59434 30.7044 4.49219 30.2951 4.49219C30.0904 4.49219 29.8857 4.49219 29.7322 4.54327L7.01318 10.4683C6.80851 10.5194 6.60383 10.6215 6.45033 10.7237C5.73396 11.1323 5.27344 11.8985 5.27344 12.7157V36.467C5.27344 37.2843 5.68279 38.0504 6.39916 38.459L17.8098 45.1503C17.9634 45.2524 18.0657 45.3035 18.2192 45.3546C18.475 45.4567 18.7309 45.5078 18.9867 45.5078C19.1914 45.5078 19.3961 45.5078 19.5496 45.4057L20.5218 45.1503L42.8827 39.1741C43.9061 38.9187 44.6224 37.9993 44.6224 36.9267V13.4819C44.6736 12.869 44.4177 12.256 44.0084 11.8474ZM30.2951 6.84177L40.8359 12.6647L19.6008 18.2322L9.21345 12.3071L30.2951 6.84177ZM7.62721 36.467V14.0948L18.2704 20.1731V42.6985L7.62721 36.467ZM42.371 36.9267L20.573 42.7496V20.3774L42.371 14.7078V36.9267Z" fill="white"/>
</svg>
