<svg width="141" height="25" viewBox="0 0 141 25" fill="none" xmlns="http://www.w3.org/2000/svg">
<g id="Clip path group">
<mask id="mask0_3682_6305" style="mask-type:luminance" maskUnits="userSpaceOnUse" x="0" y="0" width="141" height="25">
<g id="clip0">
<path id="Vector" d="M140.5 0.483398H0.5V24.5159H140.5V0.483398Z" fill="white"/>
</g>
</mask>
<g mask="url(#mask0_3682_6305)">
<g id="Group">
<path id="Vector_2" d="M75.7745 19.016C74.588 18.349 73.6557 17.4273 72.97 16.2582C72.2843 15.0817 71.9453 13.7629 71.9453 12.2866C71.9453 10.8103 72.292 9.49142 72.9931 8.31493C73.6942 7.13839 74.6342 6.21666 75.8284 5.55721C77.0226 4.89027 78.3401 4.56055 79.7809 4.56055C81.4682 4.56055 82.9552 4.98768 84.2341 5.83448L84.3651 7.94022H84.1494C83.5253 7.37069 82.855 6.93606 82.1385 6.63631C81.4219 6.32907 80.613 6.17919 79.6961 6.17919C78.6637 6.17919 77.7006 6.42648 76.8146 6.92107C75.9286 7.41566 75.2198 8.12756 74.6958 9.05681C74.1719 9.98604 73.91 11.0651 73.91 12.2941C73.91 13.523 74.1719 14.6021 74.6958 15.5314C75.2198 16.4606 75.9286 17.1725 76.8146 17.6671C77.7006 18.1617 78.6637 18.4089 79.6961 18.4089C80.613 18.4089 81.4297 18.2591 82.1385 17.9519C82.855 17.6446 83.5176 17.21 84.1494 16.648H84.3651L84.2341 18.7537C82.9552 19.6005 81.4451 20.0276 79.7115 20.0276C78.2785 20.0126 76.961 19.6829 75.7745 19.016Z" fill="white"/>
<path id="Vector_3" d="M88.7092 19.2694C87.854 18.7749 87.176 18.1004 86.6752 17.2536C86.1821 16.4069 85.9355 15.4776 85.9355 14.4735C85.9355 13.4693 86.1821 12.5401 86.6752 11.6933C87.1683 10.8465 87.8463 10.172 88.7092 9.67743C89.5644 9.18281 90.5198 8.93555 91.5676 8.93555C92.3689 8.93555 93.0931 9.08542 93.748 9.39269C94.4029 9.69996 94.9345 10.0821 95.3428 10.5467V9.22779H97.0918V19.719H95.3428V18.4002C94.9345 18.8647 94.4029 19.2545 93.748 19.5542C93.0931 19.8614 92.3689 20.0113 91.5676 20.0113C90.5198 20.0113 89.5721 19.764 88.7092 19.2694ZM93.6093 17.943C94.2026 17.5833 94.6571 17.0962 94.973 16.4892C95.2966 15.8823 95.4507 15.2078 95.4507 14.4735C95.4507 13.7391 95.2889 13.0646 94.973 12.4576C94.6494 11.8507 94.1949 11.3636 93.6093 11.0038C93.0161 10.6441 92.3381 10.4643 91.5676 10.4643C90.7971 10.4643 90.1191 10.6441 89.5259 11.0038C88.9326 11.3636 88.4781 11.8507 88.1622 12.4576C87.8386 13.0646 87.6845 13.7391 87.6845 14.4735C87.6845 15.2078 87.8463 15.8823 88.1622 16.4892C88.4858 17.0962 88.9403 17.5833 89.5259 17.943C90.1191 18.3027 90.7971 18.4826 91.5676 18.4826C92.3381 18.4826 93.0238 18.3027 93.6093 17.943Z" fill="white"/>
<path id="Vector_4" d="M99.8892 9.22163H101.638V10.7954C102.131 10.2558 102.717 9.81363 103.395 9.45396C104.073 9.10171 104.82 8.92188 105.629 8.92188C106.646 8.92188 107.578 9.16171 108.41 9.6338C109.25 10.1059 109.913 10.7654 110.398 11.6122C110.884 12.4514 111.13 13.4106 111.13 14.4673C111.13 15.5314 110.884 16.4831 110.398 17.3224C109.913 18.1617 109.25 18.8211 108.426 19.3007C107.594 19.7728 106.685 20.0126 105.698 20.0126C104.835 20.0126 104.05 19.8403 103.341 19.5031C102.624 19.1658 102.062 18.7237 101.638 18.1841V24.5164H99.8892V9.22163ZM107.47 17.9444C108.064 17.5847 108.534 17.0976 108.88 16.4756C109.227 15.8536 109.397 15.1942 109.397 14.4673C109.397 13.7479 109.227 13.0734 108.88 12.459C108.534 11.8444 108.071 11.3574 107.47 10.9901C106.877 10.6305 106.207 10.4506 105.46 10.4506C104.72 10.4506 104.05 10.6305 103.449 10.9901C102.855 11.3499 102.385 11.837 102.039 12.459C101.692 13.0809 101.523 13.7404 101.523 14.4673C101.523 15.1866 101.692 15.8611 102.039 16.4756C102.385 17.0901 102.848 17.5772 103.449 17.9444C104.042 18.304 104.712 18.4839 105.46 18.4839C106.199 18.4839 106.87 18.304 107.47 17.9444Z" fill="white"/>
<path id="Vector_5" d="M113.372 6.87553C113.133 6.64323 113.01 6.36596 113.01 6.03624C113.01 5.714 113.133 5.42924 113.372 5.19693C113.611 4.96463 113.896 4.84473 114.235 4.84473C114.566 4.84473 114.859 4.96463 115.098 5.19693C115.337 5.42924 115.46 5.714 115.46 6.03624C115.46 6.36596 115.337 6.64323 115.098 6.87553C114.859 7.11533 114.566 7.22774 114.235 7.22774C113.903 7.22774 113.611 7.11533 113.372 6.87553ZM113.364 9.22106H115.113V19.7123H113.364V9.22106Z" fill="white"/>
<path id="Vector_6" d="M119.682 19.2623C119.181 18.7602 118.927 18.0557 118.927 17.149V10.7568H116.854V9.2281H118.927V7.22729L120.676 6.41797V9.22059H123.758V10.7493H120.676V17.1865C120.676 17.6136 120.815 17.9358 121.092 18.1531C121.369 18.3705 121.693 18.4829 122.078 18.4829C122.34 18.4829 122.594 18.4379 122.841 18.3555C123.087 18.273 123.373 18.1082 123.696 17.8684H123.889L123.758 19.4796C123.365 19.6744 123.034 19.8168 122.756 19.8917C122.479 19.9667 122.14 20.0116 121.731 20.0116C120.869 20.0116 120.183 19.7643 119.682 19.2623Z" fill="white"/>
<path id="Vector_7" d="M127.58 19.2694C126.725 18.7749 126.047 18.1004 125.546 17.2536C125.053 16.4069 124.806 15.4776 124.806 14.4735C124.806 13.4693 125.053 12.5401 125.546 11.6933C126.039 10.8465 126.717 10.172 127.58 9.67743C128.435 9.18281 129.39 8.93555 130.438 8.93555C131.239 8.93555 131.964 9.08542 132.619 9.39269C133.273 9.69996 133.805 10.0821 134.213 10.5467V9.22779H135.962V19.719H134.213V18.4002C133.805 18.8647 133.273 19.2545 132.619 19.5542C131.964 19.8614 131.239 20.0113 130.438 20.0113C129.39 20.0113 128.435 19.764 127.58 19.2694ZM132.48 17.943C133.073 17.5833 133.528 17.0962 133.844 16.4892C134.167 15.8823 134.321 15.2078 134.321 14.4735C134.321 13.7391 134.16 13.0646 133.844 12.4576C133.52 11.8507 133.065 11.3636 132.48 11.0038C131.887 10.6441 131.209 10.4643 130.438 10.4643C129.668 10.4643 128.99 10.6441 128.396 11.0038C127.803 11.3636 127.349 11.8507 127.033 12.4576C126.709 13.0646 126.555 13.7391 126.555 14.4735C126.555 15.2078 126.717 15.8823 127.033 16.4892C127.356 17.0962 127.811 17.5833 128.396 17.943C128.99 18.3027 129.668 18.4826 130.438 18.4826C131.209 18.4826 131.887 18.3027 132.48 17.943Z" fill="white"/>
<path id="Vector_8" d="M138.751 4.42383H140.5V19.711H138.751V4.42383Z" fill="white"/>
<path id="Vector_9" d="M44.9321 4.71582H48.5841V11.2279L53.7154 4.71582H57.7449L51.951 11.9548L58.2302 19.7108H53.9157L48.5841 13.1763V19.7108H44.9321V4.71582Z" fill="white"/>
<path id="Vector_10" d="M54.7788 4.71582H58.739L62.4141 13.0714L66.0891 4.71582H70.0493L63.223 19.7108H61.5974L54.7788 4.71582Z" fill="white"/>
<path id="Vector_11" d="M20.4857 23.6541L9.237 12.0687L20.4857 0.483398H11.7564L0.5 12.0687L4.8685 16.565L11.7564 23.6541H20.4857Z" fill="white"/>
<path id="Vector_12" d="M33.7214 0.566406L22.9041 11.6946L18.9286 7.59554L14.5601 12.0918L18.5356 16.1908L23.0505 20.837L38.2362 5.20503L33.7214 0.566406Z" fill="white"/>
</g>
</g>
</g>
</svg>
